<svg xmlns="http://www.w3.org/2000/svg" viewBox="0 0 547.5 439"><defs><style>.a,.b{fill:#ff9800;}.a,.c,.d{opacity:0.8;}.c{fill:rgba(0,0,0,0);}.c,.d,.e{stroke:#542f61;stroke-miterlimit:10;}.d,.e{fill:none;}</style></defs><g transform="translate(762.554 -5436.399)"><g transform="translate(-762.554 5450.865)"><ellipse class="a" cx="3.892" cy="3.892" rx="3.892" ry="3.892" transform="translate(512.884 383.278)"/><ellipse class="a" cx="4.808" cy="4.808" rx="4.808" ry="4.808" transform="translate(409.391 145.16)"/><ellipse class="a" cx="4.579" cy="4.579" rx="4.579" ry="4.579" transform="translate(373.984 267.257)"/><ellipse class="a" cx="2.519" cy="2.519" rx="2.519" ry="2.519" transform="translate(483.576 225.754)"/><ellipse class="a" cx="2.519" cy="2.519" rx="2.519" ry="2.519" transform="translate(368.635 302.227)"/><ellipse class="a" cx="2.519" cy="2.519" rx="2.519" ry="2.519" transform="translate(0 388.773)"/><ellipse class="a" cx="2.519" cy="2.519" rx="2.519" ry="2.519" transform="translate(466.633)"/><ellipse class="b" cx="4.579" cy="4.579" rx="4.579" ry="4.579" transform="translate(161.284 403.381)"/><path class="b" d="M675.212,864.087h-3.663a3.391,3.391,0,0,0-2.2.778v-1.923a4.446,4.446,0,0,0-4.442-4.442h-4.167a.626.626,0,0,0-.641.641v1.74a4.446,4.446,0,0,0,4.442,4.442h3.572v6.365h-.5a7.656,7.656,0,0,0-4.534,1.465.623.623,0,0,0,.733,1.008,6.291,6.291,0,0,1,3.8-1.237,8.2,8.2,0,0,1,1.008.092h.091a6.381,6.381,0,0,1,4.625,3.3.555.555,0,0,0,.549.321.846.846,0,0,0,.321-.092.615.615,0,0,0,.229-.87,7.639,7.639,0,0,0-5.083-3.8v-2.015h3.068a3.459,3.459,0,0,0,3.434-3.434v-1.695A.688.688,0,0,0,675.212,864.087Zm-7.144,0H664.5a3.186,3.186,0,0,1-3.206-3.206v-1.1h3.572a3.186,3.186,0,0,1,3.206,3.206v1.1Zm6.5,2.335a2.2,2.2,0,0,1-2.2,2.2H669.3v-1.053a2.2,2.2,0,0,1,2.2-2.2h3.068Z" transform="translate(-357.819 -479.572)"/><path class="b" d="M661.935,897.989a2.467,2.467,0,0,0-3.251-1.236h0l-4.076,1.877a.625.625,0,1,0,.5,1.145l4.076-1.878a1.209,1.209,0,0,1,1.008,2.2l-8.38,3.709a4.81,4.81,0,0,1-4.121-.092l-3.068-1.511a6.03,6.03,0,0,0-5.175-.137l-.046.046-2.29-5.174,3.16-1.419a6.138,6.138,0,0,1,4.763-.137l6.182,2.244a1.165,1.165,0,0,1,.687,1.419,1.107,1.107,0,0,1-1.42.687l-4.762-1.6a.623.623,0,0,0-.366,1.191l4.762,1.6a2.076,2.076,0,0,0,.733.137,2.411,2.411,0,0,0,2.244-1.6,2.368,2.368,0,0,0-1.42-2.976l-6.182-2.244a7.393,7.393,0,0,0-5.678.183l-3.206,1.419a1.515,1.515,0,0,0-1.923-.549l-4.122,1.786a.614.614,0,0,0-.366.6v10.853a.6.6,0,0,0,.321.55.85.85,0,0,0,.32.092.58.58,0,0,0,.275-.046l7.968-4.03a1.694,1.694,0,0,0,.824-.87,1.525,1.525,0,0,0,.046-1.007l.092-.046a4.81,4.81,0,0,1,4.121.091l3.068,1.511a6.031,6.031,0,0,0,5.175.137l8.38-3.709A2.456,2.456,0,0,0,661.935,897.989Zm-23.263,5.77a.359.359,0,0,1-.183.183h-.046l-7.1,3.572v-2.747l1.832-.916a.614.614,0,1,0-.55-1.1l-1.282.641v-5.449l3.755-1.648a.291.291,0,0,1,.275,0,.356.356,0,0,1,.183.183l2.931,6.686h0l.183.366Z" transform="translate(-341.611 -498.683)"/><path class="b" d="M142.561,788.1H142.1a11.079,11.079,0,0,0-3.3-4.579h0a3.076,3.076,0,0,1,.5-2.519,1.407,1.407,0,0,0,.046-1.465,1.443,1.443,0,0,0-1.236-.733h-.183a6.134,6.134,0,0,0-4.076,2.106A14.427,14.427,0,0,0,120.9,783.7a10.718,10.718,0,0,0-3.8,8.06,10.163,10.163,0,0,0,.275,2.335v.092a9.4,9.4,0,0,0,.824,2.244,10.859,10.859,0,0,0,2.152,3.251,4.866,4.866,0,0,1,1.374,3.343v.458a1.355,1.355,0,0,0,1.374,1.237h4.213a1.378,1.378,0,0,0,1.374-1.374v-.275c.641.046,1.328.046,1.969.046v.275a1.378,1.378,0,0,0,1.374,1.374h4.213a1.378,1.378,0,0,0,1.374-1.374v-1.145a3.379,3.379,0,0,1,1.191-2.381l.137-.138h0a.045.045,0,0,0,.046-.046,11.265,11.265,0,0,0,3.068-4.488h.412a1.955,1.955,0,0,0,1.969-1.969v-3.16A1.827,1.827,0,0,0,142.561,788.1Zm.6,5.083a.606.606,0,0,1-.6.6h-.87a.637.637,0,0,0-.641.5,9.841,9.841,0,0,1-2.885,4.4h0l-.137.137h0a4.851,4.851,0,0,0-1.649,3.389h0v1.053h-4.213v-1.008a.735.735,0,0,0-.229-.5.812.812,0,0,0-.458-.183h-.092a13.912,13.912,0,0,1-1.42.091,11.733,11.733,0,0,1-1.786-.137.629.629,0,0,0-.549.183.735.735,0,0,0-.229.5v1.053h-4.213v-.366a6.688,6.688,0,0,0-1.786-4.259,10.554,10.554,0,0,1-1.923-2.885h0a7.874,7.874,0,0,1-.733-1.969h0a7.9,7.9,0,0,1-.229-2.061c0-5.5,5.175-9.983,11.494-9.983a12.634,12.634,0,0,1,3.938.6.674.674,0,0,0,.779-.275,4.623,4.623,0,0,1,3.434-1.923c.046,0,.092,0,.092.046v.091a4.528,4.528,0,0,0-.641,3.618h0a.633.633,0,0,0,.275.5,9.971,9.971,0,0,1,3.251,4.579.689.689,0,0,0,.641.458h.916a.606.606,0,0,1,.6.6l-.137,3.16Z" transform="translate(-63.476 -436.368)"/><path class="b" d="M142.147,799.591h-1.511a1.007,1.007,0,0,1,0-2.015h2.7a.687.687,0,1,0,0-1.374H142.1v-.916a.687.687,0,1,0-1.374,0v.916h-.092a2.335,2.335,0,1,0,0,4.671h1.511a1.007,1.007,0,1,1,0,2.015H139.4a.687.687,0,1,0,0,1.374h1.282v.916a.687.687,0,0,0,1.374,0v-.916h.092a2.335,2.335,0,1,0,0-4.671Z" transform="translate(-74.968 -444.932)"/><rect class="b" width="11.448" height="1.099" transform="translate(469.747 65.024)"/><rect class="b" width="1.099" height="3.434" transform="translate(483.485 65.024)"/><rect class="b" width="1.099" height="3.434" transform="translate(486.919 65.024)"/><rect class="b" width="1.099" height="3.434" transform="translate(490.354 65.024)"/><rect class="b" width="1.099" height="3.434" transform="translate(493.788 65.024)"/><rect class="b" width="1.099" height="3.434" transform="translate(497.223 65.024)"/><path class="b" d="M1053.039,148.7V131.756l-8.059,4.03-1.145-20.286H1038.2l-1.145,18.5-3.526,1.786-1.1-15.157H1026.8L1025.655,134l-8.06,4.03V148.7h-.6v1.1h36.634v-1.1Zm-13.784-32.054h3.526l.046,1.191h-3.664Zm-.137,2.29h3.8l.046,1.191h-3.938Zm-.137,2.29h4.076l.824,15.111-2.289,1.145v-5.724l-3.389,1.694Zm-11.173.549h3.526l.092,1.191h-3.755Zm-.183,2.29h3.892l.092,1.191h-4.122Zm-.183,2.29h4.3l.733,9.983-2.29,1.145v-5.724l-3.343,1.694ZM1021.03,148.7h-2.335v-1.191h2.335V148.7Zm10.3,0h-9.2v-4.03h9.2Zm20.607,0h-19.508v-1.191h19.508Zm0-2.29h-19.508v-2.885h-11.4v2.885h-2.335v-7.693l10.349-5.174v5.724l11.448-5.724v5.724l11.448-5.724V146.41Z" transform="translate(-551.283 -76.806)"/><path class="b" d="M1062.486,633.592h0a.665.665,0,0,0,.916,0,.69.69,0,0,0,.091-.824h0l-.046-.046-.046-.046h0a4.866,4.866,0,0,1,0-6.777.7.7,0,0,0,0-.916.664.664,0,0,0-.916,0,6.08,6.08,0,0,0,0,8.609Z" transform="translate(-574.971 -352.888)"/><path class="b" d="M1046.712,631.578l-.046-.046a13.6,13.6,0,0,1,0-19.233.648.648,0,0,0-.916-.916,11.974,11.974,0,0,0-1.236,1.42,14.92,14.92,0,0,0,.962,19.37l.275.275a.641.641,0,0,0,1.1-.458A.738.738,0,0,0,1046.712,631.578Z" transform="translate(-564.509 -345.515)"/><path class="b" d="M1081.058,632.73h0l-.045.046-.046.046h0a.636.636,0,0,0,.091.824.665.665,0,0,0,.916,0h0a6.025,6.025,0,0,0,0-8.563.664.664,0,0,0-.916,0,.7.7,0,0,0,0,.916,4.726,4.726,0,0,1,0,6.732Z" transform="translate(-585.896 -352.941)"/><path class="b" d="M1053.736,632.059h0c.046.046.046.046.046.091a.045.045,0,0,0,.046.046c.046.092.137.138.183.229.046.046.046.046.046.092.046.092.137.137.183.183s.046.046.046.092a1.2,1.2,0,0,1,.229.275c.046.046.092.091.138.091a.045.045,0,0,1,.046.046h.092c.046,0,.092.046.183.046h0a.588.588,0,0,0,.458-.183.7.7,0,0,0,0-.916l-.229-.229-.046-.046c-.045-.046-.091-.137-.183-.183l-.046-.046c-.045-.092-.137-.137-.183-.229h0a9.5,9.5,0,0,1-1.511-2.748c0-.046,0-.046-.046-.092a.415.415,0,0,1-.046-.229.159.159,0,0,0-.046-.091c0-.092-.045-.138-.045-.183s-.046-.092-.046-.137c0-.092-.046-.137-.046-.183a.169.169,0,0,0-.046-.137c0-.091-.046-.137-.046-.183a.168.168,0,0,0-.046-.137c0-.091-.046-.137-.046-.183v-.137c0-.092,0-.137-.046-.183v-2.061a.274.274,0,0,1,.046-.183.168.168,0,0,1,.046-.137c0-.046.046-.137.046-.183a.168.168,0,0,1,.046-.137c0-.046.046-.137.046-.183s.046-.091.046-.137.046-.137.046-.183.045-.092.045-.137.046-.137.046-.183.046-.092.046-.137.046-.092.046-.183c0-.046.046-.092.046-.137a.16.16,0,0,1,.046-.092,8.508,8.508,0,0,1,1.374-2.427l.046-.046a.356.356,0,0,1,.183-.183c0-.046.046-.046.046-.092.046-.046.092-.137.138-.183l.046-.046.229-.229a.564.564,0,0,0,.183-.366.629.629,0,0,0-.183-.55.7.7,0,0,0-.916,0,1.227,1.227,0,0,0-.229.275c-.046.046-.046.046-.046.092l-.183.183c-.046.046-.046.046-.046.092-.046.091-.137.137-.183.229l-.046.046-.046.046a.045.045,0,0,1-.046.046,11.138,11.138,0,0,0-1.42,2.473h0c0,.046-.046.092-.046.138-.046.092-.046.137-.092.229,0,.046-.046.046-.046.091-.046.092-.046.183-.092.275a.16.16,0,0,1-.046.091c-.046.092-.046.183-.092.275,0,.046-.046.092-.046.137a.5.5,0,0,0-.046.229c0,.046-.046.092-.046.137,0,.092-.046.137-.046.229a.167.167,0,0,1-.046.137c0,.092-.046.138-.046.229a.168.168,0,0,1-.046.137c0,.092-.046.137-.046.229v.183a.416.416,0,0,1-.045.229v2.106c0,.092,0,.137.045.183a86.061,86.061,0,0,0,.092.366c0,.046.046.137.046.183s.046.137.046.183.046.137.046.183.046.137.046.183.046.137.046.183.046.092.046.183.046.137.046.183.046.092.046.138c.046.091.046.137.091.183,0,.046.046.092.046.183s.046.092.046.137c.046.046.046.137.092.183h0C1052.637,630.5,1053.141,631.327,1053.736,632.059Z" transform="translate(-569.931 -349.432)"/><path class="b" d="M1096.836,612.8a18.314,18.314,0,0,0-1.237-1.42.648.648,0,0,0-.916.916,13.6,13.6,0,0,1,0,19.233l-.046.046a.739.739,0,0,0-.137.412.647.647,0,0,0,1.1.458l.275-.275a14.921,14.921,0,0,0,.962-19.37Z" transform="translate(-593.294 -345.515)"/><path class="b" d="M1090.44,629.132a.168.168,0,0,0,.046-.137c0-.046.046-.092.046-.183.045-.091.045-.137.092-.183,0-.046.046-.091.046-.137a.345.345,0,0,0,.046-.183c0-.046.046-.091.046-.183,0-.046.046-.137.046-.183s.046-.137.046-.183.046-.137.046-.184.046-.137.046-.183.046-.137.046-.183.046-.137.046-.183a.275.275,0,0,1,.046-.183c0-.091,0-.137.046-.183v-2.107a.414.414,0,0,0-.046-.229v-.183c0-.092-.046-.137-.046-.229a.168.168,0,0,0-.046-.137c0-.092-.046-.138-.046-.229a.167.167,0,0,0-.046-.137c0-.092-.046-.138-.046-.229a.169.169,0,0,0-.046-.138.5.5,0,0,1-.046-.229c0-.046-.046-.091-.046-.137-.046-.091-.046-.183-.092-.275a.159.159,0,0,0-.046-.091c-.045-.092-.045-.183-.091-.275,0-.046-.046-.046-.046-.091-.046-.092-.046-.137-.092-.229,0-.046-.046-.091-.046-.137h0a11.144,11.144,0,0,0-1.419-2.473.045.045,0,0,0-.046-.046l-.046-.045-.046-.046c-.046-.091-.137-.137-.183-.229-.046-.046-.046-.046-.046-.092-.045-.092-.137-.137-.183-.183s-.046-.046-.046-.091a1.215,1.215,0,0,1-.229-.275.7.7,0,0,0-.916,0,.63.63,0,0,0-.183.55.565.565,0,0,0,.183.367l.229.229.046.046a.634.634,0,0,1,.137.183c0,.046.046.046.046.092.046.092.137.137.183.183l.046.046a8.5,8.5,0,0,1,1.374,2.427.161.161,0,0,0,.046.092c0,.046.046.091.046.137s.046.092.046.183c0,.046.046.092.046.137s.046.137.046.183.046.092.046.137.046.137.046.183.046.092.046.138.046.137.046.183a.168.168,0,0,0,.046.137c0,.046.046.137.046.183a.169.169,0,0,0,.046.137.276.276,0,0,0,.046.183v2.061c0,.092,0,.137-.046.183v.137c0,.091,0,.137-.046.183a.168.168,0,0,1-.046.137c0,.092-.046.137-.046.183a.168.168,0,0,1-.046.137c0,.091-.046.137-.046.183s-.046.092-.046.137c0,.092-.046.137-.046.184a.16.16,0,0,1-.046.091.412.412,0,0,0-.046.229c0,.046,0,.046-.046.091a8.075,8.075,0,0,1-1.511,2.747h0c-.046.092-.137.138-.183.229l-.046.046c-.046.046-.092.137-.183.183l-.046.046-.229.229a.7.7,0,0,0,0,.916.588.588,0,0,0,.458.183h0a.169.169,0,0,0,.137-.045h.092c.046,0,.046-.046.091-.046.046-.046.092-.046.138-.091a1.213,1.213,0,0,0,.229-.275l.092-.091.183-.183c.046-.046.046-.046.046-.091.046-.091.137-.138.183-.229a.045.045,0,0,1,.046-.046l.046-.046a.045.045,0,0,1,.046-.046,11.136,11.136,0,0,0,1.419-2.473h0C1090.394,629.27,1090.44,629.178,1090.44,629.132Z" transform="translate(-589.187 -349.16)"/><path class="b" d="M1064.84,633.845a2.7,2.7,0,0,0,1.328-2.289v-.137h0v-.366h0a2.575,2.575,0,0,0-2.244-2.152h-.824a2.732,2.732,0,0,0-2.244,2.152h0v.366h0v.137a2.637,2.637,0,0,0,1.328,2.289l-7.419,25.369a.631.631,0,0,0,.229.687.521.521,0,0,0,.366.137h0a.52.52,0,0,0,.366-.137l7.739-5.724,7.785,5.724a.61.61,0,0,0,.366.137h0a.52.52,0,0,0,.366-.137.587.587,0,0,0,.229-.687Zm-1.328,18.729-2.381-1.74-2.107-1.557.458-1.6.5-.366,1.923-1.42h0l1.648-1.236,1.649,1.236h0l1.832,1.374.55.412.458,1.6-2.061,1.511Zm0-18.408h.137l1.053,3.618,1.053,3.618-2.244,1.648-2.244-1.648,1.1-3.709,1.008-3.526Zm3.48,11.448-2.381-1.74,1.557-1.145Zm-6.914,0,.87-2.885,1.557,1.145Zm-3.572,12.089,2.106-7.189,3.847,2.839Zm14.013,0-5.953-4.4,3.847-2.839Zm-7.144-27.567h.366a1.459,1.459,0,0,1,1.237,1.191v.183a1.419,1.419,0,1,1-2.839,0v-.183A1.364,1.364,0,0,1,1063.375,630.136Z" transform="translate(-571.739 -355.11)"/></g><g transform="translate(-720.425 5436.899)"><ellipse class="c" cx="6.869" cy="6.869" rx="6.869" ry="6.869" transform="translate(329.024 223.007)"/><ellipse class="d" cx="6.869" cy="6.869" rx="6.869" ry="6.869" transform="translate(491.132)"/><ellipse class="c" cx="6.869" cy="6.869" rx="6.869" ry="6.869" transform="translate(166.916 345.271)"/><ellipse class="e" cx="29.308" cy="29.307" rx="29.308" ry="29.307" transform="translate(233.087 379.387)"/><ellipse class="e" cx="25.186" cy="25.186" rx="25.186" ry="25.186" transform="translate(0 344.127)"/><ellipse class="e" cx="34.024" cy="34.023" rx="34.024" ry="34.023" transform="translate(407.88 35.809)"/><ellipse class="e" cx="32.147" cy="32.146" rx="32.147" ry="32.146" transform="translate(417.497 267.105)"/></g></g></svg>