<svg xmlns="http://www.w3.org/2000/svg" viewBox="0 0 83.34 76"><defs><style>.a{fill:#5a5789;}.b{fill:none;stroke:#5a5789;stroke-linecap:round;stroke-linejoin:round;stroke-miterlimit:10;stroke-width:3px;}</style></defs><g transform="translate(-641.5 -905.5)"><g transform="translate(657.764 920.877)"><path class="a" d="M36.428,17.227a1.35,1.35,0,0,0-.187-1.953,1.432,1.432,0,0,0-1.874,0l-8.9,8.837a1.435,1.435,0,0,0-.187,1.953,1.46,1.46,0,0,0,1.967.186c.094,0,.094-.093.187-.186Z" transform="translate(-24.98 -14.925)"/><path class="a" d="M40.433,20.764,36.967,24.3a1.435,1.435,0,0,0-.187,1.953,1.46,1.46,0,0,0,1.967.186c.094,0,.094-.093.187-.186l3.56-3.535a1.435,1.435,0,0,0,.187-1.953,1.46,1.46,0,0,0-1.967-.186A.72.72,0,0,0,40.433,20.764Z" transform="translate(-25.706 -15.299)"/></g><g transform="translate(642 906)"><g transform="translate(1 1)"><path class="b" d="M81.34,52.08a3.6,3.6,0,0,1-3.62,3.62H4.62A3.6,3.6,0,0,1,1,52.08V4.62A3.6,3.6,0,0,1,4.62,1h73.1a3.6,3.6,0,0,1,3.62,3.62V52.08Z" transform="translate(-1 -1)"/><line class="b" x2="79.134" transform="translate(0.603 42.332)"/><path class="a" d="M43.925,49.213A2.313,2.313,0,1,1,41.613,46.9,2.275,2.275,0,0,1,43.925,49.213Z" transform="translate(-0.789 -0.747)"/></g><g transform="translate(23.021 56.303)"><g transform="translate(8.245)"><line class="b" x1="2.715" y2="12.468"/><line class="b" x2="2.614" y2="12.468" transform="translate(17.194)"/></g><path class="b" d="M56.484,69H25.715c-1.508,0-2.815,2.112-2.815,4.625H59.2C59.2,71.112,57.992,69,56.484,69Z" transform="translate(-22.9 -55.928)"/></g><path class="b" d="M6.6,43.307V5.6H75.779V43.307" transform="translate(0.031 0.025)"/></g></g></svg>