<svg xmlns="http://www.w3.org/2000/svg" viewBox="0 0 85.636 80.899"><defs><style>.a{fill:#5a5789;stroke-width:0.7px;}.a,.b{stroke:#5a5789;}.b{fill:none;stroke-linecap:round;stroke-linejoin:round;stroke-width:3px;}</style></defs><g transform="translate(-307.5 -899.5)"><g transform="translate(336.746 980.036) rotate(-90)"><g transform="translate(-0.013)"><path class="a" d="M36.722,0A19.3,19.3,0,0,0,21.351,30.972l-3.909,3.909-.073.073a4.489,4.489,0,0,0-.98-.1,4.674,4.674,0,0,0-3.377,1.4L1.393,47.881a4.759,4.759,0,0,0-.024,6.729l.024.024a4.759,4.759,0,0,0,6.729.024l.024-.024L19.766,43.015a4.773,4.773,0,0,0,1.4-3.377,5.383,5.383,0,0,0-.1-.98l.073-.073,3.909-3.909A19.3,19.3,0,1,0,36.722,0ZM6.863,53.351a2.961,2.961,0,1,1-4.188-4.188L13.169,38.67l4.188,4.188ZM18.64,41.575,14.464,37.4a2.989,2.989,0,0,1,1.937-.714,2.975,2.975,0,0,1,2.965,2.965A3.035,3.035,0,0,1,18.64,41.575Zm1.646-4.7a5.073,5.073,0,0,0-1.138-1.138l3.365-3.365c.363.4.738.775,1.138,1.138Zm16.436-.085A17.489,17.489,0,1,1,54.211,19.3,17.506,17.506,0,0,1,36.722,36.794Z" transform="translate(0.013)"/><path class="a" d="M191.432,32a15.432,15.432,0,1,0,15.432,15.432A15.434,15.434,0,0,0,191.432,32Zm0,29.048a13.616,13.616,0,1,1,13.616-13.616A13.621,13.621,0,0,1,191.432,61.048Z" transform="translate(-154.697 -28.127)"/></g><g transform="translate(35.814 7.746)"><path class="a" d="M345.184,78.213a.913.913,0,1,0-1.041,1.5.063.063,0,0,0,.048.024,9.747,9.747,0,0,1,2.856,13.483,9.258,9.258,0,0,1-.654.884.918.918,0,0,0,.121,1.283.9.9,0,0,0,.581.206.921.921,0,0,0,.7-.327,11.566,11.566,0,0,0-1.586-16.291A9.043,9.043,0,0,0,345.184,78.213Z" transform="translate(-337.97 -76.349)"/><path class="a" d="M299.014,64.194A12.28,12.28,0,0,0,296.908,64a.908.908,0,1,0,0,1.815,9.6,9.6,0,0,1,1.767.157.8.8,0,0,0,.169.012.9.9,0,0,0,.908-.9A.887.887,0,0,0,299.014,64.194Z" transform="translate(-296 -64)"/></g></g><path class="b" d="M4114.082,5473.62v3.86h-52.143v-72.489h33.625l18.518,18.259v2.5" transform="translate(-3752.938 -4503.991)"/><path class="b" d="M4116.088,5423.25H4098.5v-18" transform="translate(-3755.75 -4503.991)"/><path class="b" d="M4067.5,5418.506H4082" transform="translate(-3750.254 -4503.998)"/><path class="b" d="M4067.5,5418.506H4082" transform="translate(-3750.254 -4495.998)"/><path class="b" d="M4067.5,5418.506h12.578" transform="translate(-3750.254 -4474.998)"/><path class="b" d="M4067.5,5418.506h12.578" transform="translate(-3750.254 -4466.998)"/><path class="b" d="M4067.5,5418.506H4088" transform="translate(-3750.254 -4458.998)"/></g></svg>