<svg xmlns="http://www.w3.org/2000/svg" viewBox="0 0 75.3 75.3"><defs><style>.a{fill:#5a5789;stroke:#5a5789;stroke-linecap:round;stroke-linejoin:round;stroke-width:0.3px;}</style></defs><g transform="translate(-977.85 -905.85)"><path class="a" d="M12.839,353.158V340.276l2.786-1.857H20.1V336H14.892l-4.472,2.982v14.176a3.629,3.629,0,1,0,2.419,0Zm-1.21,4.616a1.21,1.21,0,1,1,1.21-1.21A1.21,1.21,0,0,1,11.629,357.774Z" transform="translate(971.209 620.807)"/><path class="a" d="M7.035,292.839h6.271v-2.419H7.035a3.629,3.629,0,1,0,0,2.419Zm-4.616-1.21a1.21,1.21,0,1,1,1.21,1.21A1.21,1.21,0,0,1,2.419,291.629Z" transform="translate(978 661.548)"/><path class="a" d="M3.629,231.258a3.624,3.624,0,0,0,3.406-2.419h6.271v-2.419H7.035a3.623,3.623,0,1,0-3.406,4.839Zm0-4.839a1.21,1.21,0,1,1-1.21,1.21A1.21,1.21,0,0,1,3.629,226.419Z" transform="translate(978 715.871)"/><rect class="a" width="4.839" height="2.419" transform="translate(986.468 947.129)"/><rect class="a" width="4.839" height="2.419" transform="translate(986.468 937.452)"/><rect class="a" width="13.306" height="2.419" transform="translate(978 932.613)"/><path class="a" d="M22.757,78.516h4.13V76.1H23.759l-2.92-2.92V71.035a3.629,3.629,0,1,0-2.419,0v3.143Zm-3.128-12.1a1.21,1.21,0,1,1-1.21,1.21A1.21,1.21,0,0,1,19.629,66.419Z" transform="translate(964.419 851.677)"/><path class="a" d="M21.774,37.34v3.128h2.419v-4.13L19.856,32H0v2.419H18.854Z" transform="translate(978 878.839)"/><path class="a" d="M26.613,5.34v7.967h2.419V4.338L24.694,0H0V2.419H23.693Z" transform="translate(978 906)"/><rect class="a" width="2.419" height="4.839" transform="translate(1009.452 914.468)"/><rect class="a" width="2.419" height="13.306" transform="translate(1023.968 906)"/><path class="a" d="M226.419,7.035v6.271h2.419V8.969l2.419,2.419v1.919h2.419v-2.92l-3.872-3.872a3.626,3.626,0,1,0-3.386.521Zm1.21-4.616a1.21,1.21,0,1,1-1.21,1.21A1.21,1.21,0,0,1,227.629,2.419Z" transform="translate(787.871 906)"/><path class="a" d="M338.419,7.759l2.92-2.92h11.819a3.625,3.625,0,0,0,2.2,2.2V23.693l-2.92,2.92h-5.548v2.419h6.549l4.338-4.338V7.035a3.62,3.62,0,1,0-4.616-4.616h-12.82L336,6.757v6.549h2.419Zm18.145-5.34a1.21,1.21,0,1,1-1.21,1.21A1.21,1.21,0,0,1,356.565,2.419Z" transform="translate(692.807 906)"/><path class="a" d="M374.968,69.049l2.71,2.71v1.418l-2.92,2.92h-.709v2.419h1.711l4.338-4.338V70.757l-4.338-4.338h-.723a3.61,3.61,0,1,0-.068,2.63Zm-3.339-.21a1.21,1.21,0,1,1,1.21-1.21A1.21,1.21,0,0,1,371.629,68.839Z" transform="translate(665.645 851.677)"/><rect class="a" width="13.306" height="2.419" transform="translate(1039.693 937.452)"/><path class="a" d="M418.887,271.674V244.338L414.549,240H408v2.419h5.548l2.92,2.92V251.6l-1.919-1.919H408V252.1h5.548l2.92,2.92v16.657a3.629,3.629,0,1,0,2.419,0Zm-1.21,4.616a1.21,1.21,0,1,1,1.21-1.21A1.21,1.21,0,0,1,417.677,276.29Z" transform="translate(631.693 702.29)"/><rect class="a" width="4.839" height="2.419" transform="translate(1039.693 947.129)"/><path class="a" d="M352.935,340.338,348.6,336h-1.711v2.419h.709l2.92,2.92V348.1h-12.1v-1.21H336v3.629h14.516v1.919l-2.92,2.92h-2.141a3.629,3.629,0,1,0,0,2.419H348.6l4.338-4.338Zm-10.887,17.436a1.21,1.21,0,1,1,1.21-1.21A1.21,1.21,0,0,1,342.048,357.774Z" transform="translate(692.807 620.807)"/><path class="a" d="M71.726,401.21H69.306v1.21H63.035a3.629,3.629,0,1,0,0,2.419h8.69Zm-12.1,3.629a1.21,1.21,0,1,1,1.21-1.21A1.21,1.21,0,0,1,59.629,404.839Z" transform="translate(930.468 566.484)"/><rect class="a" width="2.419" height="13.306" transform="translate(1023.968 967.693)"/><rect class="a" width="2.419" height="13.306" transform="translate(1019.129 967.693)"/><path class="a" d="M199.258,409.919l-2.419,2.419V408h-2.419v6.271a3.633,3.633,0,1,0,3.386.521l3.872-3.872V408h-2.419Zm-3.629,8.969a1.21,1.21,0,1,1,1.21-1.21A1.21,1.21,0,0,1,195.629,418.887Z" transform="translate(815.032 559.693)"/><path class="a" d="M158.048,408h-2.419v3.128L152,414.757v6.549h2.419v-5.548l3.629-3.629Z" transform="translate(848.984 559.693)"/><path class="a" d="M139.081,147.548H141.5v-2.419h3.629V141.5h2.419v-2.419h-2.419v-2.419h2.419v-2.419h-2.419v-2.419h2.419V129.4h-2.419v-2.419h2.419v-2.419h-2.419v-2.419h2.419v-2.419h-2.419v-2.419h2.419v-2.419h-2.419v-2.419h2.419v-2.419h-2.419v-3.629H141.5V104h-2.419v2.419h-2.419V104h-2.419v2.419h-2.419V104H129.4v2.419h-2.419V104h-2.419v2.419h-2.419V104h-2.419v2.419h-2.419V104h-2.419v2.419h-2.419V104h-2.419v2.419h-.5l-3.128,3.128v.5H104v2.419h2.419v2.419H104v2.419h2.419v2.419H104v2.419h2.419v2.419H104v2.419h2.419V129.4H104v2.419h2.419v2.419H104v2.419h2.419v2.419H104V141.5h2.419v3.629h3.629v2.419h2.419v-2.419h2.419v2.419h2.419v-2.419h2.419v2.419h2.419v-2.419h2.419v2.419h2.419v-2.419H129.4v2.419h2.419v-2.419h2.419v2.419h2.419v-2.419h2.419Zm-30.242-4.839v-32.16l1.71-1.71h32.16V142.71Z" transform="translate(889.726 817.726)"/><path class="a" d="M214.048,208a6.048,6.048,0,1,0,6.048,6.048A6.055,6.055,0,0,0,214.048,208Zm0,9.677a3.629,3.629,0,1,1,3.629-3.629A3.633,3.633,0,0,1,214.048,217.677Z" transform="translate(801.452 729.452)"/></g></svg>