<svg xmlns="http://www.w3.org/2000/svg" viewBox="0 0 30 30"><defs><style>.a{fill:#fff;}</style></defs><g transform="translate(-791 -1588)"><path class="a" d="M35.326,23.9H26.372A2.573,2.573,0,0,0,23.8,26.472v8.953A2.573,2.573,0,0,0,26.372,38h8.953A2.573,2.573,0,0,0,37.9,35.426V26.472A2.6,2.6,0,0,0,35.326,23.9ZM30.849,35.593a4.644,4.644,0,1,1,4.644-4.644A4.634,4.634,0,0,1,30.849,35.593Zm4.777-8.318a1.1,1.1,0,1,1,1.1-1.1A1.112,1.112,0,0,1,35.626,27.274Z" transform="translate(775.151 1572.084)"/><path class="a" d="M39.573,37a2.673,2.673,0,1,0,2.673,2.673A2.68,2.68,0,0,0,39.573,37Z" transform="translate(766.427 1563.361)"/><path class="a" d="M15,0A15,15,0,1,0,30,15,15,15,0,0,0,15,0Zm9.02,19.51a4.548,4.548,0,0,1-4.543,4.543H10.523A4.548,4.548,0,0,1,5.98,19.51V10.557a4.548,4.548,0,0,1,4.543-4.543h8.953a4.548,4.548,0,0,1,4.543,4.543Z" transform="translate(791 1588)"/></g></svg>