<svg xmlns="http://www.w3.org/2000/svg" viewBox="0 0 30 30"><defs><style>.a{fill:#fff;}</style></defs><path class="a" d="M15,0A15,15,0,1,0,30,15,15,15,0,0,0,15,0ZM11.024,22.383H7.45V11.592h3.575ZM9.254,10.122h0a1.876,1.876,0,1,1,.033-3.742,1.863,1.863,0,0,1,2,1.871A1.911,1.911,0,0,1,9.254,10.122Zm14.7,12.261H20.379V16.6c0-1.437-.5-2.439-1.8-2.439a1.962,1.962,0,0,0-1.837,1.3,1.907,1.907,0,0,0-.134.9v6.013H13s.033-9.755,0-10.791H16.57v1.537a3.558,3.558,0,0,1,3.241-1.771c2.372,0,4.109,1.537,4.109,4.844v6.18Z"/></svg>