<?xml version="1.0" encoding="utf-8"?>
<!-- Generator: Adobe Illustrator 22.1.0, SVG Export Plug-In . SVG Version: 6.00 Build 0)  -->
<svg version="1.1" id="Layer_1" xmlns="http://www.w3.org/2000/svg" xmlns:xlink="http://www.w3.org/1999/xlink" x="0px" y="0px"
	 viewBox="0 0 257.1 48.3" style="enable-background:new 0 0 257.1 48.3;" xml:space="preserve">
<style type="text/css">
	.st0{fill:#00ACEC;}
	.st1{fill:#2E4A6D;}
</style>
<path class="st0" d="M234.9,21.5c-1.9,0-3.5,1.6-3.5,3.5c0,1.9,1.6,3.5,3.5,3.5c1.9,0,3.5-1.6,3.5-3.5
	C238.4,23.1,236.8,21.5,234.9,21.5z M244.2,21.5c-1.9,0-3.5,1.6-3.5,3.5c0,1.9,1.6,3.5,3.5,3.5c1.9,0,3.5-1.6,3.5-3.5
	C247.7,23.1,246.1,21.5,244.2,21.5z M216.2,21.5c-1.9,0-3.5,1.6-3.5,3.5c0,1.9,1.6,3.5,3.5,3.5c1.9,0,3.5-1.6,3.5-3.5
	C219.7,23.1,218.2,21.5,216.2,21.5z M225.6,21.5c-1.9,0-3.5,1.6-3.5,3.5c0,1.9,1.6,3.5,3.5,3.5c1.9,0,3.5-1.6,3.5-3.5
	C229,23.1,227.5,21.5,225.6,21.5z M225.6,12.2c-1.9,0-3.5,1.6-3.5,3.5c0,1.9,1.6,3.5,3.5,3.5c1.9,0,3.5-1.6,3.5-3.5
	C229,13.8,227.5,12.2,225.6,12.2z M253.5,21.5c-1.9,0-3.5,1.6-3.5,3.5c0,1.9,1.6,3.5,3.5,3.5s3.5-1.6,3.5-3.5
	C257,23.1,255.4,21.5,253.5,21.5z M234.9,12.2c-1.9,0-3.5,1.6-3.5,3.5c0,1.9,1.6,3.5,3.5,3.5c1.9,0,3.5-1.6,3.5-3.5
	C238.4,13.8,236.8,12.2,234.9,12.2z M244.2,12.2c-1.9,0-3.5,1.6-3.5,3.5c0,1.9,1.6,3.5,3.5,3.5c1.9,0,3.5-1.6,3.5-3.5
	C247.7,13.8,246.1,12.2,244.2,12.2z M216.2,12.2c-1.9,0-3.5,1.6-3.5,3.5c0,1.9,1.6,3.5,3.5,3.5c1.9,0,3.5-1.6,3.5-3.5
	C219.7,13.8,218.2,12.2,216.2,12.2z M225.6,2.9c-1.9,0-3.5,1.6-3.5,3.5c0,1.9,1.6,3.5,3.5,3.5c1.9,0,3.5-1.6,3.5-3.5
	C229,4.4,227.5,2.9,225.6,2.9z M234.9,2.9c-1.9,0-3.5,1.6-3.5,3.5c0,1.9,1.6,3.5,3.5,3.5c1.9,0,3.5-1.6,3.5-3.5
	C238.4,4.4,236.8,2.9,234.9,2.9z M216.2,2.9c-1.9,0-3.5,1.6-3.5,3.5c0,1.9,1.6,3.5,3.5,3.5c1.9,0,3.5-1.6,3.5-3.5
	C219.7,4.4,218.2,2.9,216.2,2.9z M225.6,30.8c-1.9,0-3.5,1.6-3.5,3.5c0,1.9,1.6,3.5,3.5,3.5c1.9,0,3.5-1.6,3.5-3.5
	C229,32.4,227.5,30.8,225.6,30.8z M234.9,30.8c-1.9,0-3.5,1.6-3.5,3.5c0,1.9,1.6,3.5,3.5,3.5c1.9,0,3.5-1.6,3.5-3.5
	C238.4,32.4,236.8,30.8,234.9,30.8z M244.2,30.8c-1.9,0-3.5,1.6-3.5,3.5c0,1.9,1.6,3.5,3.5,3.5c1.9,0,3.5-1.6,3.5-3.5
	C247.7,32.4,246.1,30.8,244.2,30.8z M216.2,30.8c-1.9,0-3.5,1.6-3.5,3.5c0,1.9,1.6,3.5,3.5,3.5c1.9,0,3.5-1.6,3.5-3.5
	C219.7,32.4,218.2,30.8,216.2,30.8z M225.6,40.1c-1.9,0-3.5,1.6-3.5,3.5c0,1.9,1.6,3.5,3.5,3.5c1.9,0,3.5-1.6,3.5-3.5
	C229,41.7,227.5,40.1,225.6,40.1z M234.9,40.1c-1.9,0-3.5,1.6-3.5,3.5c0,1.9,1.6,3.5,3.5,3.5c1.9,0,3.5-1.6,3.5-3.5
	C238.4,41.7,236.8,40.1,234.9,40.1z M216.2,40.1c-1.9,0-3.5,1.6-3.5,3.5c0,1.9,1.6,3.5,3.5,3.5c1.9,0,3.5-1.6,3.5-3.5
	C219.7,41.7,218.2,40.1,216.2,40.1z"/>
<g>
	<path class="st1" d="M30.2,33.1c0,2.9-0.7,5.4-2,7.6c-1.4,2.2-3.3,3.9-5.9,5.2c-2.5,1.2-5.5,1.8-9,1.8c-2.9,0-5.3-0.2-7.2-0.6
		c-1.9-0.4-4-1.2-6.1-2.3V33.8C2.3,35,4.6,35.9,7,36.6c2.4,0.7,4.6,1,6.6,1c1.7,0,3-0.3,3.8-1c0.8-0.6,1.2-1.5,1.2-2.5
		c0-0.6-0.2-1.2-0.5-1.7c-0.3-0.5-0.8-1-1.6-1.4c-0.7-0.5-2.6-1.5-5.7-3c-2.8-1.4-4.9-2.7-6.3-4S2,21.4,1.4,19.7
		c-0.7-1.7-1-3.6-1-5.9c0-4.2,1.4-7.6,4.3-9.9s6.8-3.6,11.9-3.6c4.5,0,9,1.1,13.6,3.3l-3.6,9.6c-4-2-7.5-3-10.4-3
		c-1.5,0-2.6,0.3-3.3,0.9s-1,1.3-1,2.1c0,0.9,0.4,1.7,1.3,2.4c0.9,0.7,3.2,2,7.1,3.9c3.7,1.8,6.3,3.7,7.7,5.8
		C29.5,27.4,30.2,30,30.2,33.1z"/>
	<path class="st1" d="M49.5,38c1.5,0,3.4-0.4,5.6-1.2v9c-1.5,0.7-3,1.2-4.4,1.5c-1.4,0.3-3,0.5-4.9,0.5c-3.9,0-6.6-1-8.4-3
		c-1.7-2-2.6-5.2-2.6-9.4V20.6h-4v-5l5.1-3.9l3-7.5h7.5v7.2h8.2v9.3h-8.2v13.9C46.3,36.9,47.4,38,49.5,38z"/>
	<path class="st1" d="M79.6,47.2l-2.2-4.7h-0.2c-1.5,2.1-3.1,3.5-4.7,4.2s-3.7,1.1-6.2,1.1c-3.1,0-5.6-1-7.4-3
		c-1.8-2-2.7-4.9-2.7-8.5c0-3.8,1.2-6.6,3.7-8.5c2.5-1.9,6-2.9,10.7-3.1l5.6-0.2v-0.5c0-2.9-1.4-4.4-4.1-4.4c-2.4,0-5.5,0.9-9.3,2.7
		L59.4,14c3.9-2.1,8.8-3.2,14.7-3.2c4.3,0,7.6,1.1,9.9,3.4c2.3,2.3,3.5,5.5,3.5,9.5v23.5H79.6z M71,39.1c1.4,0,2.6-0.5,3.6-1.4
		c1-1,1.5-2.2,1.5-3.7v-2.8l-2.6,0.1c-3.8,0.1-5.7,1.6-5.7,4.5C67.8,38,68.9,39.1,71,39.1z"/>
	<path class="st1" d="M112.5,10.7c1,0,2,0.1,2.9,0.3l0.6,0.1l-1,11.7c-0.9-0.3-2.2-0.4-3.9-0.4c-2.5,0-4.3,0.6-5.5,1.8
		c-1.1,1.2-1.7,3-1.7,5.3v17.6H92.4V11.4h8.6l1.8,5.7h0.6c1-1.9,2.3-3.4,4-4.6C109,11.3,110.7,10.7,112.5,10.7z"/>
	<path class="st1" d="M133.9,38c1.5,0,3.4-0.4,5.6-1.2v9c-1.5,0.7-3,1.2-4.4,1.5c-1.4,0.3-3,0.5-4.9,0.5c-3.9,0-6.6-1-8.4-3
		c-1.7-2-2.6-5.2-2.6-9.4V20.6h-4v-5l5.1-3.9l3-7.5h7.5v7.2h8.2v9.3h-8.2v13.9C130.8,36.9,131.9,38,133.9,38z"/>
	<path class="st1" d="M171.1,33.1c0,2.9-0.7,5.4-2,7.6c-1.4,2.2-3.3,3.9-5.9,5.2c-2.5,1.2-5.5,1.8-9,1.8c-2.9,0-5.3-0.2-7.2-0.6
		c-1.9-0.4-4-1.2-6.1-2.3V33.8c2.2,1.2,4.5,2.2,6.9,2.9c2.4,0.7,4.6,1,6.6,1c1.7,0,3-0.3,3.8-1c0.8-0.6,1.2-1.5,1.2-2.5
		c0-0.6-0.2-1.2-0.5-1.7c-0.3-0.5-0.8-1-1.6-1.4c-0.7-0.5-2.6-1.5-5.7-3c-2.8-1.4-4.9-2.7-6.3-4c-1.4-1.3-2.4-2.8-3.1-4.4
		c-0.7-1.7-1-3.6-1-5.9c0-4.2,1.4-7.6,4.3-9.9c2.9-2.4,6.8-3.6,11.9-3.6c4.5,0,9,1.1,13.6,3.3l-3.6,9.6c-4-2-7.5-3-10.4-3
		c-1.5,0-2.6,0.3-3.3,0.9c-0.7,0.6-1,1.3-1,2.1c0,0.9,0.4,1.7,1.3,2.4c0.9,0.7,3.2,2,7.1,3.9c3.7,1.8,6.3,3.7,7.7,5.8
		C170.4,27.4,171.1,30,171.1,33.1z"/>
	<path class="st1" d="M190.2,47.8c-5.5,0-9.9-1.6-12.9-4.8c-3.1-3.2-4.6-7.7-4.6-13.5c0-6,1.4-10.7,4.3-13.9
		c2.8-3.2,6.9-4.8,12.2-4.8c5,0,8.9,1.4,11.6,4.2c2.7,2.8,4.1,6.9,4.1,12.1v5.5h-20.6c0.1,2,0.8,3.6,2,4.7c1.3,1.1,3,1.7,5.3,1.7
		c2,0,3.9-0.2,5.6-0.6c1.7-0.4,3.5-1.1,5.5-2.1v8.9c-1.8,1-3.7,1.7-5.6,2.1S192.8,47.8,190.2,47.8z M189.5,19.1
		c-1.4,0-2.5,0.5-3.4,1.4c-0.9,0.9-1.4,2.4-1.6,4.3h9.9c0-1.7-0.5-3.1-1.4-4.1C192.1,19.7,191,19.1,189.5,19.1z"/>
</g>
</svg>
